<?xml version="1.0" encoding="utf-8"?>
<!-- Generator: Adobe Illustrator 26.3.1, SVG Export Plug-In . SVG Version: 6.00 Build 0)  -->
<svg version="1.1" id="Layer_1" xmlns="http://www.w3.org/2000/svg" xmlns:xlink="http://www.w3.org/1999/xlink" x="0px" y="0px"
	 viewBox="0 0 576 512" style="enable-background:new 0 0 576 512;" xml:space="preserve">
<g transform="translate(0.000000,512.000000) scale(0.100000,-0.100000)">
	<path d="M2805,5108c-16-6-46-22-65-36C2654,5008,78,2816,52,2784c-78-94-68-218,23-310c57-57,117-80,188-72c66,8,102,30,242,148
		l130,111l5-998c6-1082,2-1011,60-1165c29-78,106-194,175-263c103-102,222-169,380-213c55-16,195-17,1625-17s1570,1,1625,17
		c158,44,277,111,380,213c69,69,146,185,175,263c58,154,54,83,60,1165l5,998l130-111c140-118,176-140,242-148c71-8,131,15,188,72
		c101,102,101,227,0,333c-74,78-2663,2270-2704,2290C2937,5117,2846,5124,2805,5108z M3766,3814l873-739l-2-1180l-2-1180l-34-63
		c-37-69-79-109-151-144c-43-22-58-23-327-26l-282-3l-3,808l-3,808l-32,67c-44,93-100,151-191,196l-76,37h-656h-656l-76-37
		c-91-45-147-103-191-196l-32-67l-3-808l-3-808l-282,3c-277,3-283,3-332,28c-64,31-124,91-155,155l-25,50l-2,1180l-2,1180l877,743
		c482,408,881,741,886,739S3286,4221,3766,3814z M3360,1200V480h-480h-480v720v720h480h480V1200z"/>
</g>
</svg>
