<?xml version="1.0" encoding="utf-8"?>
<!-- Generator: Adobe Illustrator 26.3.1, SVG Export Plug-In . SVG Version: 6.00 Build 0)  -->
<svg version="1.1" id="Layer_1" xmlns="http://www.w3.org/2000/svg" xmlns:xlink="http://www.w3.org/1999/xlink" x="0px" y="0px"
	 viewBox="0 0 454.9 128.8" style="enable-background:new 0 0 454.9 128.8;" xml:space="preserve">
<style type="text/css">
	.st0{fill:#575756;}
	.st1{fill:#C6CA00;}
	.st2{fill:#EFE85D;}
	.st3{fill:#FFE809;}
</style>
<g>
	<g>
		<g>
			<g>
				<path class="st0" d="M273.9,7.7l16.4,88.5h-13.1l-8.6-49l-23.7,76.6l-23.6-76.6l-8.6,49h-13.1l16.4-88.5l28.9,86.9L273.9,7.7z"
					/>
				<path class="st0" d="M244.9,128.8l-23.2-75.3L214,97.6h-16.2l17.8-96l29.3,88.1l29.5-88.1l17.8,95.9h-16.2l-7.7-44.2
					L244.9,128.8z M220.8,40.7l24,77.9L269,40.7l9.4,53.9h10.1l-15-81l-28.6,85.6l-28.5-85.6l-15,81h10.1L220.8,40.7z"/>
			</g>
		</g>
	</g>
	<g>
		<path class="st0" d="M80.8,116c0-1.5,0.1-2,0.3-2.7c0.5-1.6,1.7-2.4,3.4-2.4c1.4,0,2.5,0.6,3,1.6c0.1,0.2,0.1,0.3,0.1,0.5
			c0,0.5-0.3,0.8-0.8,0.8c-0.3,0-0.5-0.1-0.8-0.5c-0.4-0.6-0.9-0.9-1.6-0.9c-0.9,0-1.5,0.5-1.8,1.3c-0.1,0.4-0.2,0.9-0.2,2.3
			c0,1.4,0.1,1.8,0.2,2.3c0.3,0.8,0.8,1.3,1.8,1.3c0.7,0,1.2-0.3,1.6-0.9c0.2-0.3,0.5-0.5,0.8-0.5c0.4,0,0.8,0.3,0.8,0.8
			c0,0.2-0.1,0.3-0.1,0.5c-0.5,1-1.6,1.6-3,1.6c-1.7,0-2.9-0.8-3.4-2.4C80.8,118,80.8,117.4,80.8,116z"/>
		<path class="st0" d="M91.6,113.2c0.5-1.6,1.8-2.4,3.5-2.4c1.7,0,3,0.8,3.5,2.4c0.2,0.7,0.3,1.3,0.3,2.7c0,1.4-0.1,2-0.3,2.7
			c-0.5,1.6-1.8,2.4-3.5,2.4c-1.7,0-2.9-0.8-3.5-2.4c-0.2-0.7-0.3-1.3-0.3-2.7C91.4,114.5,91.4,113.9,91.6,113.2z M96.9,113.7
			c-0.3-0.8-0.8-1.3-1.8-1.3c-1,0-1.5,0.5-1.8,1.3c-0.1,0.4-0.2,0.9-0.2,2.3c0,1.3,0.1,1.8,0.2,2.3c0.3,0.8,0.8,1.3,1.8,1.3
			c1,0,1.6-0.5,1.8-1.3c0.1-0.4,0.2-0.9,0.2-2.3C97.1,114.6,97.1,114.1,96.9,113.7z"/>
		<path class="st0" d="M108.5,120.4l-1.8-3.5h-1.8c-0.1,0-0.1,0-0.1,0.1v3.1c0,0.6-0.3,0.9-0.9,0.9c-0.5,0-0.9-0.3-0.9-0.9v-8.3
			c0-0.5,0.3-0.8,0.8-0.8h3.2c1.8,0,3.1,1.2,3.1,2.9c0,1.2-0.7,2.2-1.8,2.7l1.6,3c0.1,0.2,0.1,0.3,0.1,0.5c0,0.4-0.3,0.8-0.8,0.8
			C109,121,108.7,120.8,108.5,120.4z M108.5,114c0-0.9-0.6-1.4-1.5-1.4h-2.1c-0.1,0-0.1,0-0.1,0.1v2.6c0,0.1,0,0.1,0.1,0.1h2.1
			C107.9,115.4,108.5,114.8,108.5,114z"/>
		<path class="st0" d="M114.4,112c0-0.6,0.4-1,1-1c0.5,0,0.8,0.3,1.1,0.8l3.6,6.1h0v-6.1c0-0.5,0.3-0.8,0.8-0.8
			c0.4,0,0.8,0.3,0.8,0.8v8.1c0,0.6-0.4,1-1,1c-0.5,0-0.8-0.3-1.1-0.8l-3.6-6.1H116v6.1c0,0.5-0.3,0.8-0.8,0.8
			c-0.5,0-0.8-0.3-0.8-0.8V112z"/>
		<path class="st0" d="M126.3,111.8c0-0.5,0.3-0.8,0.8-0.8h4.9c0.5,0,0.9,0.3,0.9,0.8s-0.3,0.8-0.9,0.8h-3.9c-0.1,0-0.1,0-0.1,0.1
			v2.4c0,0.1,0,0.1,0.1,0.1h3.2c0.5,0,0.9,0.3,0.9,0.8s-0.3,0.8-0.9,0.8h-3.2c-0.1,0-0.1,0-0.1,0.1v2.5c0,0.1,0,0.1,0.1,0.1h3.9
			c0.5,0,0.9,0.3,0.9,0.8c0,0.4-0.3,0.8-0.9,0.8h-4.9c-0.5,0-0.8-0.3-0.8-0.8V111.8z"/>
		<path class="st0" d="M142.4,120.4l-1.8-3.5h-1.8c-0.1,0-0.1,0-0.1,0.1v3.1c0,0.6-0.3,0.9-0.9,0.9c-0.5,0-0.9-0.3-0.9-0.9v-8.3
			c0-0.5,0.3-0.8,0.8-0.8h3.2c1.8,0,3.1,1.2,3.1,2.9c0,1.2-0.7,2.2-1.8,2.7l1.6,3c0.1,0.2,0.1,0.3,0.1,0.5c0,0.4-0.3,0.8-0.8,0.8
			C142.8,121,142.6,120.8,142.4,120.4z M142.4,114c0-0.9-0.6-1.4-1.5-1.4h-2.1c-0.1,0-0.1,0-0.1,0.1v2.6c0,0.1,0,0.1,0.1,0.1h2.1
			C141.7,115.4,142.4,114.8,142.4,114z"/>
		<path class="st0" d="M148.3,120.2c-0.3-0.2-0.4-0.4-0.4-0.7c0-0.4,0.3-0.8,0.8-0.8c0.2,0,0.4,0.1,0.6,0.2c0.8,0.4,1.4,0.7,2.3,0.7
			c1.2,0,1.9-0.6,1.9-1.4c0-0.7-0.4-1.2-1.8-1.4l-0.5-0.1c-2-0.3-3-1.2-3-2.8c0-1.8,1.3-3,3.3-3c1.1,0,2.1,0.3,2.7,0.7
			c0.3,0.2,0.4,0.4,0.4,0.7c0,0.4-0.3,0.8-0.8,0.8c-0.2,0-0.4-0.1-0.5-0.1c-0.6-0.3-1.2-0.4-1.8-0.4c-1,0-1.6,0.6-1.6,1.3
			c0,0.7,0.5,1.1,1.8,1.3l0.5,0.1c2,0.3,3,1.2,3,2.9c0,1.8-1.3,3-3.7,3C150,121,148.9,120.6,148.3,120.2z"/>
		<path class="st0" d="M159,112.6c-0.5,0-0.9-0.3-0.9-0.8s0.3-0.8,0.9-0.8h5.8c0.5,0,0.9,0.3,0.9,0.8s-0.3,0.8-0.9,0.8h-2
			c-0.1,0-0.1,0-0.1,0.1v7.4c0,0.6-0.4,0.9-0.9,0.9s-0.9-0.3-0.9-0.9v-7.4c0-0.1,0-0.1-0.1-0.1H159z"/>
		<path class="st0" d="M169,113.2c0.5-1.6,1.8-2.4,3.5-2.4c1.7,0,3,0.8,3.5,2.4c0.2,0.7,0.3,1.3,0.3,2.7c0,1.4-0.1,2-0.3,2.7
			c-0.5,1.6-1.8,2.4-3.5,2.4c-1.7,0-2.9-0.8-3.5-2.4c-0.2-0.7-0.3-1.3-0.3-2.7C168.7,114.5,168.7,113.9,169,113.2z M174.2,113.7
			c-0.3-0.8-0.8-1.3-1.8-1.3c-1,0-1.5,0.5-1.8,1.3c-0.1,0.4-0.2,0.9-0.2,2.3c0,1.3,0.1,1.8,0.2,2.3c0.3,0.8,0.8,1.3,1.8,1.3
			c1,0,1.6-0.5,1.8-1.3c0.1-0.4,0.2-0.9,0.2-2.3C174.4,114.6,174.4,114.1,174.2,113.7z"/>
		<path class="st0" d="M180.4,112c0-0.6,0.4-1,1-1c0.5,0,0.8,0.3,1.1,0.8l3.6,6.1h0v-6.1c0-0.5,0.3-0.8,0.8-0.8
			c0.4,0,0.8,0.3,0.8,0.8v8.1c0,0.6-0.4,1-1,1c-0.5,0-0.8-0.3-1.1-0.8l-3.6-6.1H182v6.1c0,0.5-0.3,0.8-0.8,0.8
			c-0.5,0-0.8-0.3-0.8-0.8V112z"/>
		<path class="st0" d="M192.3,111.8c0-0.5,0.3-0.8,0.8-0.8h4.9c0.5,0,0.9,0.3,0.9,0.8s-0.3,0.8-0.9,0.8h-3.9c-0.1,0-0.1,0-0.1,0.1
			v2.4c0,0.1,0,0.1,0.1,0.1h3.2c0.5,0,0.9,0.3,0.9,0.8s-0.3,0.8-0.9,0.8h-3.2c-0.1,0-0.1,0-0.1,0.1v2.5c0,0.1,0,0.1,0.1,0.1h3.9
			c0.5,0,0.9,0.3,0.9,0.8c0,0.4-0.3,0.8-0.9,0.8h-4.9c-0.5,0-0.8-0.3-0.8-0.8V111.8z"/>
	</g>
	<g>
		<polygon class="st1" points="55.2,0 34.9,0 0,34.9 24.6,59.5 55.2,28.8 		"/>
		<polygon class="st2" points="34.9,119 55.2,119 55.2,90.2 24.6,59.5 0,84.1 		"/>
		<polygon class="st3" points="0,84.1 24.6,59.5 0,34.9 		"/>
	</g>
	<path class="st0" d="M194.5,63.1c0,4-0.7,8-2,12.1c-1.3,4.1-3.2,7.8-5.8,11.1c-2.5,3.3-5.6,6-9.2,8.1c-3.6,2.1-7.6,3.2-12.2,3.2
		H93.2c-4.3-0.2-8.2-1.4-11.6-3.6c-3.4-2.2-6.3-4.9-8.6-8.2c-2.4-3.3-4.2-6.9-5.5-10.9c-1.3-4-1.9-8-1.9-11.9c0-4,0.7-8,2-12.1
		c1.3-4.1,3.2-7.8,5.8-11.1c2.5-3.3,5.6-6,9.2-8.1c3.6-2.1,7.6-3.2,12.2-3.2H167c4.3,0.2,8.2,1.4,11.6,3.6c3.4,2.2,6.3,4.9,8.6,8.2
		c2.4,3.3,4.2,6.9,5.5,10.9C193.9,55.3,194.5,59.2,194.5,63.1z M170.9,80.5c2.3-1.3,4.1-2.9,5.5-4.8c1.3-1.9,2.2-4,2.7-6.3
		c0.5-2.3,0.7-4.4,0.7-6.2c0-1.9-0.2-4-0.7-6.3c-0.5-2.3-1.4-4.4-2.7-6.3c-1.3-1.9-3.1-3.5-5.5-4.8c-2.3-1.3-5.3-2-8.9-2H98.1
		c-3.7,0-6.7,0.7-8.9,2c-2.3,1.3-4.1,2.9-5.4,4.8c-1.3,1.9-2.2,4-2.7,6.3c-0.5,2.3-0.7,4.4-0.7,6.3c0,1.9,0.2,4,0.7,6.2
		c0.5,2.3,1.4,4.4,2.7,6.3c1.3,1.9,3.1,3.5,5.4,4.8c2.3,1.3,5.2,2,8.9,2h63.9C165.7,82.4,168.6,81.8,170.9,80.5z"/>
	<path class="st0" d="M424.2,43.8h-96.4c-1.6,0-3,0.6-4.2,1.7c-1.2,1.1-1.8,2.5-1.8,4.2c0,1.6,0.6,3,1.8,4.1
		c1.2,1.2,2.6,1.7,4.2,1.7h87.5c3,0,5.7,0.6,8.3,1.7c2.6,1.1,4.8,2.6,6.7,4.5c1.9,1.9,3.4,4.1,4.5,6.7c1.1,2.6,1.7,5.4,1.7,8.3
		c0,3-0.6,5.7-1.7,8.2c-1.1,2.5-2.6,4.7-4.5,6.6c-1.9,1.9-4.1,3.4-6.7,4.4c-2.6,1.1-5.4,1.6-8.3,1.6H284.2c-2.1,0-3.9-0.7-5.4-2.2
		c-1.5-1.5-2.2-3.3-2.2-5.4c0-2.1,0.7-3.9,2.2-5.4c1.5-1.5,3.3-2.2,5.4-2.2H416c1.6,0,3-0.6,4.1-1.7c1.2-1.1,1.7-2.5,1.7-4
		c0-1.7-0.6-3.1-1.7-4.3c-1.2-1.2-2.5-1.7-4.1-1.7h-87.8c-3,0-5.7-0.6-8.2-1.7c-2.5-1.1-4.7-2.6-6.6-4.5c-1.9-1.9-3.4-4.1-4.5-6.6
		c-1.1-2.5-1.7-5.3-1.7-8.2c0-3,0.6-5.7,1.7-8.2c1.1-2.5,2.6-4.7,4.5-6.6c1.9-1.9,4.1-3.4,6.6-4.5c2.5-1.1,5.3-1.7,8.2-1.7h108.4"/>
	<g>
		<path class="st0" d="M272.5,110.1c0-0.6,0.4-1,1-1c0.5,0,0.7,0.3,1,0.9l2.4,5.5h0.1l2.4-5.5c0.3-0.6,0.5-0.9,1-0.9
			c0.6,0,0.9,0.4,0.9,1v8.1c0,0.5-0.3,0.8-0.8,0.8c-0.5,0-0.8-0.3-0.8-0.8v-5.4h-0.1l-1.8,4.1c-0.3,0.6-0.5,0.8-0.9,0.8
			c-0.4,0-0.7-0.2-0.9-0.8l-1.8-4.1h-0.1v5.4c0,0.5-0.3,0.8-0.8,0.8c-0.5,0-0.8-0.3-0.8-0.8V110.1z"/>
		<path class="st0" d="M285.2,118l2.9-7.9c0.2-0.6,0.5-1,1.1-1s0.9,0.4,1.1,1l2.8,7.9c0,0.1,0.1,0.2,0.1,0.3c0,0.5-0.4,0.8-0.8,0.8
			c-0.4,0-0.7-0.2-0.8-0.6l-0.5-1.5h-3.8l-0.5,1.5c-0.1,0.4-0.4,0.6-0.8,0.6c-0.4,0-0.8-0.3-0.8-0.8
			C285.1,118.2,285.2,118.1,285.2,118z M290.5,115.4l-1.3-3.8h0l-1.3,3.8H290.5z"/>
		<path class="st0" d="M297.1,110.1c0-0.6,0.4-1,1-1c0.5,0,0.8,0.3,1.1,0.8l3.6,6.1h0v-6.1c0-0.5,0.3-0.8,0.8-0.8
			c0.4,0,0.8,0.3,0.8,0.8v8.1c0,0.6-0.4,1-1,1c-0.5,0-0.8-0.3-1.1-0.8l-3.6-6.1h-0.1v6.1c0,0.5-0.3,0.8-0.8,0.8
			c-0.5,0-0.8-0.3-0.8-0.8V110.1z"/>
		<path class="st0" d="M308.4,118l2.9-7.9c0.2-0.6,0.5-1,1.1-1c0.6,0,0.9,0.4,1.1,1l2.8,7.9c0,0.1,0.1,0.2,0.1,0.3
			c0,0.5-0.4,0.8-0.8,0.8c-0.4,0-0.7-0.2-0.8-0.6l-0.5-1.5h-3.8l-0.5,1.5c-0.1,0.4-0.4,0.6-0.8,0.6c-0.4,0-0.8-0.3-0.8-0.8
			C308.3,118.2,308.4,118.1,308.4,118z M313.7,115.4l-1.3-3.8h0l-1.3,3.8H313.7z"/>
		<path class="st0" d="M319.8,114.1c0-1.4,0.1-2,0.3-2.7c0.5-1.6,1.8-2.4,3.5-2.4c1.5,0,2.7,0.7,3.1,1.6c0.1,0.2,0.1,0.3,0.1,0.5
			c0,0.4-0.3,0.8-0.8,0.8c-0.3,0-0.5-0.1-0.8-0.4c-0.4-0.6-1-0.9-1.8-0.9c-1,0-1.6,0.5-1.8,1.3c-0.1,0.4-0.2,0.9-0.2,2.2
			c0,1.3,0.1,1.8,0.2,2.2c0.3,0.8,0.9,1.3,1.9,1.3c0.9,0,1.6-0.4,1.9-1.2c0.1-0.3,0.2-0.8,0.2-1.3c0-0.1,0-0.1-0.1-0.1h-1.1
			c-0.5,0-0.8-0.3-0.8-0.7c0-0.4,0.3-0.7,0.8-0.7h2.2c0.4,0,0.7,0.3,0.7,0.7v0.3c0,0.8-0.1,1.6-0.3,2.2c-0.5,1.6-1.8,2.4-3.5,2.4
			c-1.7,0-3-0.8-3.5-2.4C319.9,116.1,319.8,115.5,319.8,114.1z"/>
		<path class="st0" d="M331.5,109.9c0-0.5,0.3-0.8,0.8-0.8h4.9c0.5,0,0.9,0.3,0.9,0.8s-0.3,0.8-0.9,0.8h-3.9c-0.1,0-0.1,0-0.1,0.1
			v2.4c0,0.1,0,0.1,0.1,0.1h3.2c0.5,0,0.9,0.3,0.9,0.8s-0.3,0.8-0.9,0.8h-3.2c-0.1,0-0.1,0-0.1,0.1v2.5c0,0.1,0,0.1,0.1,0.1h3.9
			c0.5,0,0.9,0.3,0.9,0.8c0,0.4-0.3,0.8-0.9,0.8h-4.9c-0.5,0-0.8-0.3-0.8-0.8V109.9z"/>
		<path class="st0" d="M342.2,110.1c0-0.6,0.4-1,1-1c0.5,0,0.7,0.3,1,0.9l2.4,5.5h0.1l2.4-5.5c0.3-0.6,0.5-0.9,1-0.9
			c0.6,0,0.9,0.4,0.9,1v8.1c0,0.5-0.3,0.8-0.8,0.8c-0.5,0-0.8-0.3-0.8-0.8v-5.4h-0.1l-1.8,4.1c-0.3,0.6-0.5,0.8-0.9,0.8
			c-0.4,0-0.7-0.2-0.9-0.8l-1.8-4.1h-0.1v5.4c0,0.5-0.3,0.8-0.8,0.8c-0.5,0-0.8-0.3-0.8-0.8V110.1z"/>
		<path class="st0" d="M355.5,109.9c0-0.5,0.3-0.8,0.8-0.8h4.9c0.5,0,0.9,0.3,0.9,0.8s-0.3,0.8-0.9,0.8h-3.9c-0.1,0-0.1,0-0.1,0.1
			v2.4c0,0.1,0,0.1,0.1,0.1h3.2c0.5,0,0.9,0.3,0.9,0.8s-0.3,0.8-0.9,0.8h-3.2c-0.1,0-0.1,0-0.1,0.1v2.5c0,0.1,0,0.1,0.1,0.1h3.9
			c0.5,0,0.9,0.3,0.9,0.8c0,0.4-0.3,0.8-0.9,0.8h-4.9c-0.5,0-0.8-0.3-0.8-0.8V109.9z"/>
		<path class="st0" d="M366.1,110.1c0-0.6,0.4-1,1-1c0.5,0,0.8,0.3,1.1,0.8l3.6,6.1h0v-6.1c0-0.5,0.3-0.8,0.8-0.8
			c0.4,0,0.8,0.3,0.8,0.8v8.1c0,0.6-0.4,1-1,1c-0.5,0-0.8-0.3-1.1-0.8l-3.6-6.1h-0.1v6.1c0,0.5-0.3,0.8-0.8,0.8
			c-0.5,0-0.8-0.3-0.8-0.8V110.1z"/>
		<path class="st0" d="M378,110.7c-0.5,0-0.9-0.3-0.9-0.8s0.3-0.8,0.9-0.8h5.8c0.5,0,0.9,0.3,0.9,0.8s-0.3,0.8-0.9,0.8h-2
			c-0.1,0-0.1,0-0.1,0.1v7.4c0,0.6-0.4,0.9-0.9,0.9c-0.5,0-0.9-0.3-0.9-0.9v-7.4c0-0.1,0-0.1-0.1-0.1H378z"/>
		<path class="st0" d="M394,118.3c-0.3-0.2-0.4-0.4-0.4-0.7c0-0.4,0.3-0.8,0.8-0.8c0.2,0,0.4,0.1,0.6,0.2c0.8,0.4,1.4,0.7,2.3,0.7
			c1.2,0,1.9-0.6,1.9-1.4c0-0.7-0.4-1.2-1.8-1.4l-0.5-0.1c-2-0.3-3-1.2-3-2.8c0-1.8,1.3-3,3.3-3c1.1,0,2.1,0.3,2.7,0.7
			c0.3,0.2,0.4,0.4,0.4,0.7c0,0.4-0.3,0.8-0.8,0.8c-0.2,0-0.4-0.1-0.5-0.1c-0.6-0.3-1.2-0.4-1.8-0.4c-1,0-1.6,0.6-1.6,1.3
			c0,0.7,0.5,1.1,1.8,1.3l0.5,0.1c2,0.3,3,1.2,3,2.9c0,1.8-1.3,3-3.7,3C395.8,119.2,394.7,118.7,394,118.3z"/>
		<path class="st0" d="M406.6,118.2V115l-2.6-4.7c-0.1-0.2-0.1-0.3-0.1-0.5c0-0.4,0.3-0.8,0.8-0.8c0.3,0,0.6,0.2,0.8,0.5l2,3.7h0
			l2-3.7c0.2-0.3,0.4-0.5,0.8-0.5c0.5,0,0.8,0.3,0.8,0.8c0,0.1,0,0.3-0.1,0.5l-2.6,4.7v3.2c0,0.6-0.4,0.9-0.9,0.9
			C406.9,119.1,406.6,118.7,406.6,118.2z"/>
		<path class="st0" d="M414.4,118.3c-0.3-0.2-0.4-0.4-0.4-0.7c0-0.4,0.3-0.8,0.8-0.8c0.2,0,0.4,0.1,0.6,0.2c0.8,0.4,1.4,0.7,2.3,0.7
			c1.2,0,1.9-0.6,1.9-1.4c0-0.7-0.4-1.2-1.8-1.4l-0.5-0.1c-2-0.3-3-1.2-3-2.8c0-1.8,1.3-3,3.3-3c1.1,0,2.1,0.3,2.7,0.7
			c0.3,0.2,0.4,0.4,0.4,0.7c0,0.4-0.3,0.8-0.8,0.8c-0.2,0-0.4-0.1-0.5-0.1c-0.6-0.3-1.2-0.4-1.8-0.4c-1,0-1.6,0.6-1.6,1.3
			c0,0.7,0.5,1.1,1.8,1.3l0.5,0.1c2,0.3,3,1.2,3,2.9c0,1.8-1.3,3-3.7,3C416.2,119.2,415.1,118.7,414.4,118.3z"/>
		<path class="st0" d="M425.1,110.7c-0.5,0-0.9-0.3-0.9-0.8s0.3-0.8,0.9-0.8h5.8c0.5,0,0.9,0.3,0.9,0.8s-0.3,0.8-0.9,0.8h-2
			c-0.1,0-0.1,0-0.1,0.1v7.4c0,0.6-0.4,0.9-0.9,0.9c-0.5,0-0.9-0.3-0.9-0.9v-7.4c0-0.1,0-0.1-0.1-0.1H425.1z"/>
		<path class="st0" d="M435.5,109.9c0-0.5,0.3-0.8,0.8-0.8h4.9c0.5,0,0.9,0.3,0.9,0.8s-0.3,0.8-0.9,0.8h-3.9c-0.1,0-0.1,0-0.1,0.1
			v2.4c0,0.1,0,0.1,0.1,0.1h3.2c0.5,0,0.9,0.3,0.9,0.8s-0.3,0.8-0.9,0.8h-3.2c-0.1,0-0.1,0-0.1,0.1v2.5c0,0.1,0,0.1,0.1,0.1h3.9
			c0.5,0,0.9,0.3,0.9,0.8c0,0.4-0.3,0.8-0.9,0.8h-4.9c-0.5,0-0.8-0.3-0.8-0.8V109.9z"/>
		<path class="st0" d="M446.1,110.1c0-0.6,0.4-1,1-1c0.5,0,0.7,0.3,1,0.9l2.4,5.5h0.1l2.4-5.5c0.3-0.6,0.5-0.9,1-0.9
			c0.6,0,0.9,0.4,0.9,1v8.1c0,0.5-0.3,0.8-0.8,0.8c-0.5,0-0.8-0.3-0.8-0.8v-5.4h-0.1l-1.8,4.1c-0.3,0.6-0.5,0.8-0.9,0.8
			c-0.4,0-0.7-0.2-0.9-0.8l-1.8-4.1h-0.1v5.4c0,0.5-0.3,0.8-0.8,0.8c-0.5,0-0.8-0.3-0.8-0.8V110.1z"/>
	</g>
</g>
</svg>
